<svg xmlns="http://www.w3.org/2000/svg" width="95.105" height="52.714" viewBox="0 0 95.105 52.714"><defs><style>.a,.b,.c{fill:#273dc9;}.a{font-size:32px;font-family:Narrenschiff-Regular, Narrenschiff;}.c{fill-rule:evenodd;}</style></defs><text class="a" transform="translate(36.398 31)"><tspan x="0" y="0">Best</tspan></text><g transform="translate(36.967 34.229)"><path class="b" d="M80.7,50H75.964V62.5H73.289V50H68.553V47.435H80.7Z" transform="translate(-68.553 -47.435)"/><path class="b" d="M80.5,61.57c-3.183,0-5.78-2.942-5.78-6.527V48.194h2.623v6.849c0,2.142,1.417,3.879,3.157,3.879s3.13-1.738,3.13-3.879V48.194h2.65v6.849C86.28,58.628,83.683,61.57,80.5,61.57Z" transform="translate(-60.962 -46.501)"/><path class="b" d="M89.668,51.99h-3.8V62.5H83.006V51.99H80.385V49.128h2.621V47.435h2.862v1.693h3.8Z" transform="translate(-53.99 -47.435)"/><path class="b" d="M90.97,61.465a6.655,6.655,0,1,1,6.153-6.637A6.432,6.432,0,0,1,90.97,61.465Zm0-10.6a3.989,3.989,0,1,0,3.5,3.96A3.755,3.755,0,0,0,90.97,50.869Z" transform="translate(-48.57 -46.501)"/><path class="b" d="M99.235,48.494l-.8,2.354a3.334,3.334,0,0,0-1.122-.214,3.386,3.386,0,0,0-2.7,1.258,5.819,5.819,0,0,1-.457.562v9.175H91.663V50.419a.861.861,0,0,0-.8-.589V48.253h2.6a.771.771,0,0,1,.694.8,5.837,5.837,0,0,1,3.159-.91A5.026,5.026,0,0,1,99.235,48.494Z" transform="translate(-41.097 -46.56)"/></g><path class="c" d="M51.982,51.892a5.842,5.842,0,0,1,.4,1.785,35.441,35.441,0,0,0,3.554,9.61,10.02,10.02,0,0,1,1.2,5.01c-.038,1.553-.016,3.105-.007,4.66a1.9,1.9,0,0,0,1.475,2.115c1.459.533,2.934,1.024,4.379,1.591.683.268.87.038.868-.6,0-2.142.009-4.285.011-6.427,0-3.108-.029-6.215.025-9.32a2.256,2.256,0,0,0-1.381-2.291,16.136,16.136,0,0,1-4.33-2.876,6.591,6.591,0,0,1-1.1-8.118,9.94,9.94,0,0,1,6.13-4.625c4.747-1.434,9.3-1.024,13.367,2,4.321,3.215,4.259,8.74-.031,12.017A13.661,13.661,0,0,1,68.934,59.1c-.808.054-1.046.312-1.044,1.1q.04,8.4,0,16.791a2.011,2.011,0,0,0,1.285,2.084c1.075.48,2.093,1.086,3.154,1.6,1.432.685,1.992.33,2-1.238.009-1.662.02-3.322,0-4.981-.009-.62.161-.805.837-.779a24.909,24.909,0,0,0,4.163.1A3.78,3.78,0,0,0,83,69.8c.069-1.952.085-3.908.207-5.856.1-1.582.136-1.388,1.309-1.47a1.943,1.943,0,0,0,1.847-2.052,10.45,10.45,0,0,0-.948-4.6,25.006,25.006,0,0,1-2.271-11.951c.029-.533-.009-1.073.04-1.6a3.321,3.321,0,0,0-1.881-3.36,26.682,26.682,0,0,0-9.287-3.44,2.162,2.162,0,0,1-1.071-.286h-4.66a18.6,18.6,0,0,1-2.2.212c-5.082.473-10.155,4.763-11.64,9.733a32.87,32.87,0,0,0-.473,3.556Z" transform="translate(-51.982 -28.297)"/></svg>